<svg id="Calque_1" data-name="Calque 1" xmlns="http://www.w3.org/2000/svg" viewBox="0 0 444 421"><text transform="translate(2.4 409.6)" style="font-size:22.69062042236328px;fill:#5b97ae;font-family:Montserrat-Bold, Montserrat;font-weight:700;letter-spacing:1.7000072290655508em">AENHANCE</text><path d="M236.7,192.2h0c-4.8-24.8,7.5-58.3,18-81A166.7,166.7,0,0,1,325,35.1c40.6-22.5,76.3-20.3,76.3-20.3-67.3,2-103.6,31.6-103.6,31.6-72.8,49.5-73.6,131.3-73.6,131.3v5.9a174.7,174.7,0,0,0,40.3,112c13,15.7,24.2,23.5,24.2,23.5,45.3,38.7,112.7,38,112.7,38-52.8-.8-91.1-29-91.1-29s-53.7-31.7-70.1-117.8" style="fill:#b44b62"/><path d="M188.2,52.8,203,347.5,200.3,52.8V4.7s-14.1.4-15.6-1.1c0,0-24.8,139.1-36.6,172.3-2.1,5.9-4.1,11.9-5.9,17.9-6.8,22.5-20.4,66.6-25.3,73.7,0,0-27.1,66.2-57.9,81.3l-3.7,1.9c-6.7,3.6-30.9,14.7-45.5-6,0,0,7.9,16.4,33.7,11.4A56.1,56.1,0,0,0,67,345.7c10.2-7.7,26.6-23.2,42-51.8,0,0,36-75.2,48.8-124.5Z" style="fill:#5b97ae"/><path d="M440.2,199.3s-66-41.4-141.9-29.2a116.4,116.4,0,0,0-18.1,4.4c-17.9,6-67.7,22.1-106.1,30.4a233.7,233.7,0,0,1-45.7,5.2c-32.4.3-64.4-9.6-92.7-28.6-7.1-4.7-13.5-9.8-17.1-14.3l3.2,1.8c47.4,26.1,100.5,34,151.9,22.6,19.8-4.5,43-10.4,65.6-18.2s41.7-12.8,62.3-15.6C339.1,152.7,392.7,160,440.2,199.3Z" style="fill:#b44b62;stroke:#fff;stroke-miterlimit:10;stroke-opacity:0;stroke-width:6px"/></svg>